<mxfile host="app.diagrams.net" agent="Mozilla/5.0 (Windows NT 10.0; Win64; x64) AppleWebKit/537.36 (KHTML, like Gecko) Chrome/135.0.0.0 Safari/537.36" version="26.2.13">
  <diagram name="Page-1" id="cDJmbthqHm8SGckYOD4V">
    <mxGraphModel dx="2068" dy="1103" grid="1" gridSize="10" guides="1" tooltips="1" connect="1" arrows="1" fold="1" page="1" pageScale="1" pageWidth="850" pageHeight="1100" math="0" shadow="0">
      <root>
        <mxCell id="0" />
        <mxCell id="1" parent="0" />
        <mxCell id="n9cvMuU-qHfUW7BgkTr6-11" style="edgeStyle=orthogonalEdgeStyle;rounded=0;orthogonalLoop=1;jettySize=auto;html=1;exitX=0.5;exitY=1;exitDx=0;exitDy=0;entryX=0.5;entryY=0;entryDx=0;entryDy=0;" edge="1" parent="1" source="n9cvMuU-qHfUW7BgkTr6-5" target="n9cvMuU-qHfUW7BgkTr6-10">
          <mxGeometry relative="1" as="geometry" />
        </mxCell>
        <mxCell id="n9cvMuU-qHfUW7BgkTr6-13" style="edgeStyle=orthogonalEdgeStyle;rounded=0;orthogonalLoop=1;jettySize=auto;html=1;exitX=0.5;exitY=1;exitDx=0;exitDy=0;entryX=0.5;entryY=0;entryDx=0;entryDy=0;" edge="1" parent="1" source="n9cvMuU-qHfUW7BgkTr6-5" target="n9cvMuU-qHfUW7BgkTr6-12">
          <mxGeometry relative="1" as="geometry" />
        </mxCell>
        <mxCell id="n9cvMuU-qHfUW7BgkTr6-5" value="StmtList" style="rounded=0;whiteSpace=wrap;html=1;fillColor=#d5e8d4;strokeColor=#82b366;" vertex="1" parent="1">
          <mxGeometry x="530" y="110" width="70" height="40" as="geometry" />
        </mxCell>
        <mxCell id="n9cvMuU-qHfUW7BgkTr6-18" style="edgeStyle=orthogonalEdgeStyle;rounded=0;orthogonalLoop=1;jettySize=auto;html=1;exitX=0.5;exitY=1;exitDx=0;exitDy=0;entryX=0.5;entryY=0;entryDx=0;entryDy=0;" edge="1" parent="1" source="n9cvMuU-qHfUW7BgkTr6-10" target="n9cvMuU-qHfUW7BgkTr6-15">
          <mxGeometry relative="1" as="geometry" />
        </mxCell>
        <mxCell id="n9cvMuU-qHfUW7BgkTr6-10" value="Stmt" style="rounded=0;whiteSpace=wrap;html=1;fillColor=#d5e8d4;strokeColor=#82b366;" vertex="1" parent="1">
          <mxGeometry x="460" y="190" width="70" height="40" as="geometry" />
        </mxCell>
        <mxCell id="n9cvMuU-qHfUW7BgkTr6-17" style="edgeStyle=orthogonalEdgeStyle;rounded=0;orthogonalLoop=1;jettySize=auto;html=1;exitX=0.5;exitY=1;exitDx=0;exitDy=0;entryX=0.5;entryY=0;entryDx=0;entryDy=0;" edge="1" parent="1" source="n9cvMuU-qHfUW7BgkTr6-12" target="n9cvMuU-qHfUW7BgkTr6-16">
          <mxGeometry relative="1" as="geometry" />
        </mxCell>
        <mxCell id="n9cvMuU-qHfUW7BgkTr6-12" value="StmtList" style="rounded=0;whiteSpace=wrap;html=1;fillColor=#d5e8d4;strokeColor=#82b366;" vertex="1" parent="1">
          <mxGeometry x="590" y="190" width="70" height="40" as="geometry" />
        </mxCell>
        <mxCell id="n9cvMuU-qHfUW7BgkTr6-19" style="edgeStyle=orthogonalEdgeStyle;rounded=0;orthogonalLoop=1;jettySize=auto;html=1;exitX=0.5;exitY=1;exitDx=0;exitDy=0;" edge="1" parent="1" source="n9cvMuU-qHfUW7BgkTr6-15">
          <mxGeometry relative="1" as="geometry">
            <mxPoint x="495" y="310" as="targetPoint" />
          </mxGeometry>
        </mxCell>
        <mxCell id="n9cvMuU-qHfUW7BgkTr6-15" value="CreateStmt" style="rounded=0;whiteSpace=wrap;html=1;fillColor=#d5e8d4;strokeColor=#82b366;" vertex="1" parent="1">
          <mxGeometry x="460" y="250" width="70" height="40" as="geometry" />
        </mxCell>
        <mxCell id="n9cvMuU-qHfUW7BgkTr6-20" style="edgeStyle=orthogonalEdgeStyle;rounded=0;orthogonalLoop=1;jettySize=auto;html=1;exitX=0.5;exitY=1;exitDx=0;exitDy=0;" edge="1" parent="1" source="n9cvMuU-qHfUW7BgkTr6-16">
          <mxGeometry relative="1" as="geometry">
            <mxPoint x="625" y="310" as="targetPoint" />
          </mxGeometry>
        </mxCell>
        <mxCell id="n9cvMuU-qHfUW7BgkTr6-16" value="Stmt" style="rounded=0;whiteSpace=wrap;html=1;fillColor=#d5e8d4;strokeColor=#82b366;" vertex="1" parent="1">
          <mxGeometry x="590" y="250" width="70" height="40" as="geometry" />
        </mxCell>
        <mxCell id="n9cvMuU-qHfUW7BgkTr6-21" value="SelectStmt" style="rounded=0;whiteSpace=wrap;html=1;fillColor=#d5e8d4;strokeColor=#82b366;" vertex="1" parent="1">
          <mxGeometry x="580" y="330" width="70" height="40" as="geometry" />
        </mxCell>
      </root>
    </mxGraphModel>
  </diagram>
</mxfile>
